<svg xmlns="http://www.w3.org/2000/svg" viewBox="0 0 308 100"><defs><style>.cls-1{fill:#00caff;}.cls-2{fill:#007adb;}.cls-3{fill:#ee3f36;}.cls-4{fill:#navigation282d31;}</style></defs><title>EDteam-logo</title><g id="Capa_2" data-name="Capa 2"><g id="Layer_1" data-name="Layer 1"><path class="cls-1" d="M75,93.29A50,50,0,0,0,87.74,82.8a15,15,0,0,1-20.21-15A25,25,0,0,1,28.35,62.5,12.5,12.5,0,1,0,6.7,75,50,50,0,0,0,75,93.29Z"/><path class="cls-2" d="M93.31,25A49.86,49.86,0,0,0,59.57,1a15,15,0,0,1-2.89,25,25,25,0,0,1,15,36.58h0A12.5,12.5,0,0,0,93.31,75c.15-.25.26-.5.39-.75A49.94,49.94,0,0,0,93.31,25Z"/><path class="cls-3" d="M62.5,12.5A12.5,12.5,0,0,0,50,0c-.25,0-.49,0-.74,0A49.95,49.95,0,0,0,2.73,66.28a15,15,0,0,1,23.07-10A25,25,0,0,1,50,25h0A12.5,12.5,0,0,0,62.5,12.5Z"/><path class="cls-4" d="M134.72,69.19H112V30.27h22.72V37H120.37v8.54h13.35v6.76H120.37v10h14.35Z"/><path class="cls-4" d="M173.47,49.36q0,9.62-5.54,14.72t-16,5.11H140.74V30.27h12.39q9.66,0,15,5T173.47,49.36Zm-8.69.21Q164.78,37,153.56,37h-4.45V62.38h3.59Q164.78,62.38,164.78,49.57Z"/><path class="cls-4" d="M191.5,63.26a18.05,18.05,0,0,0,5.18-.93v6a18.77,18.77,0,0,1-7.55,1.36c-3.3,0-5.69-.82-7.2-2.47s-2.25-4.1-2.25-7.38V45.53h-3.94V42.09l4.54-2.71,2.37-6.28h5.26v6.33h8.45v6.1h-8.45V59.88a3.13,3.13,0,0,0,1,2.55A3.9,3.9,0,0,0,191.5,63.26Z"/><path class="cls-4" d="M214.22,69.73q-7.28,0-11.38-4t-4.11-11.23q0-7.48,3.8-11.57T213,38.87q6.39,0,10,3.6t3.56,9.93v3.94H207.07a7.79,7.79,0,0,0,2.08,5.4,7.35,7.35,0,0,0,5.45,1.94,22.55,22.55,0,0,0,5.16-.56,25.7,25.7,0,0,0,5.07-1.78v6.28a19.7,19.7,0,0,1-4.62,1.59A29.84,29.84,0,0,1,214.22,69.73Zm-1.16-25.08a5.27,5.27,0,0,0-4.1,1.64,7.54,7.54,0,0,0-1.7,4.64h11.55a6.7,6.7,0,0,0-1.59-4.64A5.44,5.44,0,0,0,213.06,44.65Z"/><path class="cls-4" d="M250.17,69.19l-1.59-4h-.22a12.11,12.11,0,0,1-4.28,3.58,14,14,0,0,1-5.73,1A8.59,8.59,0,0,1,229,60.3q0-4.74,3.36-7t10.14-2.48l5.23-.16V49.36c0-3-1.56-4.52-4.69-4.52a21.5,21.5,0,0,0-8.5,2.15l-2.73-5.48a24.82,24.82,0,0,1,11.55-2.69q6.07,0,9.31,2.61t3.24,7.93V69.19ZM247.74,55.4l-3.18.11a10.31,10.31,0,0,0-5.35,1.28,4,4,0,0,0-1.75,3.57c0,2.28,1.33,3.43,4,3.43A6.41,6.41,0,0,0,246,62.17a5.69,5.69,0,0,0,1.71-4.32Z"/><path class="cls-4" d="M289.19,69.19H281V51.81A8.63,8.63,0,0,0,279.87,47a3.88,3.88,0,0,0-3.44-1.61,5,5,0,0,0-4.59,2.29c-.95,1.52-1.43,4-1.43,7.53v14h-8.23V39.43h6.29l1.1,3.81H270A8.29,8.29,0,0,1,273.54,40a11.54,11.54,0,0,1,5.26-1.16q6.78,0,9.18,4.37h.73A8.07,8.07,0,0,1,292.28,40a12.12,12.12,0,0,1,5.33-1.15c3.42,0,6,.87,7.76,2.6S308,46,308,49.79v19.4h-8.26V51.81A8.63,8.63,0,0,0,298.65,47a3.88,3.88,0,0,0-3.44-1.61,5.15,5.15,0,0,0-4.52,2.13q-1.5,2.13-1.5,6.76Z"/></g></g></svg>
